# xmcd
#
# Track frame offsets: 
#        150
#        21031
#        43759
#        67370
#        87120
#        101879
#        123639
#        145476
#        163775
#        185914
#        206821
#        237420
#
# Disc length: 4583 seconds
#
# Revision: 0
# Processed by: cddbd v1.5.2PL0 Copyright (c) Steve Scherf et al.
# Submitted via: ExactAudioCopy v0.95a5
#
DISCID=bf11e50c
DTITLE=KENNY NEAL - Let Life Flow
DYEAR=2008
DGENRE=Blues
TTITLE0=Let Life Flow
TTITLE1=Blues,Leave Me Alone
TTITLE2=You've Got To Hurt Before You Heal
TTITLE3=Louisiana Stew
TTITLE4=Starlight Diamond
TTITLE5=Another Man's Cologne
TTITLE6=Broken Dreams
TTITLE7=Bleeding Heart
TTITLE8=Since I Met You Baby
TTITLE9=Fly Away
TTITLE10=It Don't Make Sense You Can't Make Peace
TTITLE11=VIDEO Program
EXTD=
EXTT0=
EXTT1=
EXTT2=
EXTT3=
EXTT4=
EXTT5=
EXTT6=
EXTT7=
EXTT8=
EXTT9=
EXTT10=
EXTT11=
PLAYORDER=
